<?xml version="1.0" encoding="iso-8859-1"?>
<!-- Generator: Adobe Illustrator 19.0.0, SVG Export Plug-In . SVG Version: 6.00 Build 0)  -->
<svg version="1.1" id="Capa_1" xmlns="http://www.w3.org/2000/svg" xmlns:xlink="http://www.w3.org/1999/xlink" x="0px" y="0px"
	 viewBox="0 0 512 512" style="enable-background:new 0 0 512 512;" xml:space="preserve">
<path style="fill:#FF80C0;" d="M510.801,135C498.5,58.2,390.399,0,256,0S13.5,58.2,1.199,135C0.3,140.099,0,144.899,0,150
	c0,5.099,0.3,9.899,1.199,15H510.8c0.899-5.101,1.199-9.901,1.199-15C512,144.899,511.7,140.099,510.801,135z"/>
<g>
	<path style="fill:#E55639;" d="M512,150c0,5.099-0.3,9.899-1.199,15H256V0c134.399,0,242.5,58.2,254.801,135
		C511.7,140.099,512,144.899,512,150z"/>
	<path style="fill:#E55639;" d="M392,150H120C120,67.2,181.601,0,256,0S392,67.2,392,150z"/>
</g>
<path style="fill:#FF80C0;" d="M392,150H256V0C330.399,0,392,67.2,392,150z"/>
<path style="fill:#C4CAD9;" d="M271,150v165c0,8.399-6.599,15-15,15s-15-6.601-15-15V150c0-8.401,6.599-15,15-15
	S271,141.599,271,150z"/>
<path style="fill:#B8BFCC;" d="M271,150v165c0,8.399-6.599,15-15,15V135C264.401,135,271,141.599,271,150z"/>
<path style="fill:#7BCC29;" d="M192.44,275.303C189.599,271.934,185.409,270,181,270H90c-4.409,0-8.599,1.934-11.44,5.303
	c-2.856,3.369-4.087,7.808-3.354,12.158l12.788,76.729l97.313-13.799l10.488-62.93C196.527,283.11,195.297,278.672,192.44,275.303z"
	/>
<path style="fill:#979CA7;" d="M397.874,369.126c-3.838,0-7.676-1.465-10.605-4.395c-5.859-5.859-5.859-15.352,0-21.211
	l35.493-35.493c5.859-5.859,15.352-5.859,21.211,0s5.859,15.352,0,21.211l-35.493,35.493
	C405.55,367.661,401.712,369.126,397.874,369.126z"/>
<path style="fill:#48A7E6;" d="M507.483,286.694l-42.178-42.178c-5.925-5.925-15.53-5.925-21.455,0l-20.461,20.461
	c-9.056,9.056-14.268,21.418-13.777,34.216c0.436,11.36,5.058,21.967,13.135,30.044c0.015,0,0.015,0,0.015,0s0,0,0,0.015
	c8.077,8.077,18.684,12.699,30.044,13.135c12.798,0.491,25.16-4.721,34.217-13.777l20.461-20.461
	C513.408,302.225,513.408,292.619,507.483,286.694z M465.809,307.397c-3.192,3.192-7.325,5.022-11.341,5.022
	c-0.17,0-0.341-0.003-0.512-0.01c-3.71-0.142-7.073-1.573-9.749-4.143c-0.157-0.16-0.315-0.318-0.476-0.475
	c-2.568-2.676-3.999-6.039-4.142-9.746c-0.16-4.188,1.667-8.508,5.013-11.854l9.976-9.975l21.206,21.207L465.809,307.397z"/>
<path style="fill:#FFE0B3;" d="M438.5,419.7h-365c-8.101-1.5-13.5-9.6-11.7-17.701C70.201,360.3,107.401,330,150,330
	c5.7,0,12.7,0.599,18.999,2.1c24.6-20.7,55.801-30.901,87.001-30.901s63.401,10.201,88.001,30.901C350.3,330.599,356.3,330,362,330
	c42.599,0,79.799,30.3,88.2,71.999C452,410.099,446.6,418.2,438.5,419.7z"/>
<path style="fill:#FFC380;" d="M438.5,419.7H256V301.2c31.199,0,63.401,10.201,88.001,30.901C350.3,330.599,356.3,330,362,330
	c42.599,0,79.799,30.3,88.2,71.999C452,410.099,446.6,418.2,438.5,419.7z"/>
<path style="fill:#F9BC35;" d="M467,390H45c-8.401,0-15,6.599-15,15v62c0,24.899,20.099,45,45,45h362c24.901,0,45-20.101,45-45v-62
	C482,396.599,475.401,390,467,390z"/>
<path style="fill:#F39E31;" d="M482,405v62c0,24.899-20.099,45-45,45H256V390h211C475.401,390,482,396.599,482,405z"/>
<path style="fill:#7F838C;" d="M512,405c0,8.399-6.599,15-15,15H15c-8.401,0-15-6.601-15-15c0-8.401,6.599-15,15-15h482
	C505.401,390,512,396.599,512,405z"/>
<path style="fill:#757982;" d="M512,405c0,8.399-6.599,15-15,15H256v-30h241C505.401,390,512,396.599,512,405z"/>
<path style="fill:#E673AD;" d="M120,135v30c0,32.999-27.001,60-60,60S0,197.999,0,165v-15c0-5.101,0.3-9.901,1.199-15H120z"/>
<g>
	<path style="fill:#CF4529;" d="M512,150v15c0,32.999-27.001,60-60,60s-60-27.001-60-60v-30h118.801
		C511.7,140.099,512,144.899,512,150z"/>
	<path style="fill:#CF4529;" d="M188.5,225L188.5,225c-37.279,0-68.5-30.221-68.5-67.5V135h136v22.5
		C256,194.779,225.779,225,188.5,225z"/>
</g>
<path style="fill:#E673AD;" d="M323.5,225L323.5,225c-37.279,0-67.5-30.221-67.5-67.5V135h136v22.5
	C392,194.779,360.779,225,323.5,225z"/>
<g>
</g>
<g>
</g>
<g>
</g>
<g>
</g>
<g>
</g>
<g>
</g>
<g>
</g>
<g>
</g>
<g>
</g>
<g>
</g>
<g>
</g>
<g>
</g>
<g>
</g>
<g>
</g>
<g>
</g>
</svg>
