<?xml version="1.0" standalone="no"?>
<!DOCTYPE svg PUBLIC "-//W3C//DTD SVG 20010904//EN"
 "http://www.w3.org/TR/2001/REC-SVG-20010904/DTD/svg10.dtd">
<svg version="1.0" xmlns="http://www.w3.org/2000/svg"
 width="700.000000pt" height="700.000000pt" viewBox="0 0 700.000000 700.000000"
 preserveAspectRatio="xMidYMid meet">
<metadata>
Created by potrace 1.11, written by Peter Selinger 2001-2013
</metadata>
<g transform="translate(0.000000,700.000000) scale(0.100000,-0.100000)"
fill="#000000" stroke="none">
<path d="M3218 6995 c-2 -1 -55 -5 -118 -9 -63 -4 -128 -9 -145 -11 -16 -2
-59 -6 -95 -10 -36 -3 -78 -7 -95 -10 -16 -2 -80 -11 -141 -20 -403 -57 -853
-178 -1161 -311 -17 -8 -34 -14 -38 -14 -14 0 -306 -146 -403 -202 -504 -290
-863 -699 -973 -1108 -42 -159 -48 -211 -45 -455 3 -210 6 -249 24 -312 109
-366 418 -605 787 -605 280 0 529 130 683 359 65 97 115 218 127 307 3 23 8
50 10 61 2 11 4 35 4 54 1 42 8 38 16 -9 12 -74 18 -98 48 -175 150 -393 561
-642 980 -593 212 25 426 132 567 285 l45 48 0 -694 c0 -684 0 -694 -20 -701
-11 -4 -42 -10 -70 -13 -157 -18 -371 -85 -548 -173 l-48 -24 6 43 c3 23 8 49
10 57 3 8 7 32 9 52 5 37 21 132 32 185 29 148 -6 241 -110 293 -39 19 -60 20
-704 20 -655 -1 -665 -1 -706 -22 -104 -53 -137 -142 -106 -293 5 -27 24 -133
41 -235 16 -102 32 -196 34 -210 2 -14 7 -43 10 -65 4 -22 8 -47 10 -55 3 -8
7 -37 10 -65 3 -27 10 -66 15 -85 4 -19 11 -61 15 -93 l6 -57 -45 -51 c-47
-52 -136 -173 -136 -184 0 -4 -9 -19 -19 -34 -11 -15 -35 -63 -55 -107 l-35
-79 -373 -5 c-407 -5 -401 -5 -460 -67 -93 -97 -65 -261 55 -320 42 -21 62
-24 172 -25 l125 -1 1 -346 c0 -190 2 -361 5 -380 31 -244 234 -463 476 -516
96 -20 5122 -21 5219 -1 160 34 323 156 399 298 75 139 74 132 78 559 l3 385
124 1 c140 1 191 17 238 72 68 81 57 223 -23 289 -57 47 -55 47 -448 52 l-373
5 -32 76 c-30 67 -101 196 -117 209 -3 3 -13 17 -22 31 -9 15 -53 65 -97 112
l-81 85 95 95 96 94 67 -25 c59 -23 82 -26 192 -26 102 1 137 5 190 23 130 44
186 86 403 303 101 102 165 174 177 200 22 49 20 130 -4 175 -24 47 -636 654
-676 671 -48 20 -106 22 -156 5 -33 -11 -81 -53 -220 -191 -218 -218 -273
-298 -309 -452 -21 -85 -11 -240 19 -324 l24 -69 -129 -130 -130 -131 -67 22
c-135 43 -231 57 -377 56 -77 0 -164 -5 -194 -12 l-54 -12 -71 53 c-217 162
-501 288 -751 332 -16 2 -41 7 -55 10 -14 3 -45 8 -70 11 -25 3 -47 8 -49 10
-3 2 -4 1220 -2 1349 l1 31 68 -66 c234 -229 537 -309 887 -235 28 6 159 58
200 79 118 63 271 203 342 313 59 93 112 217 129 308 10 47 18 84 19 83 2 -2
6 -32 9 -67 46 -439 409 -758 849 -745 140 4 313 62 433 145 108 74 222 211
278 332 58 127 68 185 73 419 6 229 -2 316 -38 454 -231 881 -1391 1559 -2914
1701 -140 13 -815 28 -827 18z m3141 -3916 c77 -77 141 -143 141 -146 0 -16
-168 -168 -203 -184 -107 -48 -220 -2 -270 110 -23 53 -19 121 12 172 21 34
160 187 172 188 4 1 70 -62 148 -140z"/>
</g>
</svg>
